<?xml version="1.0" standalone="no"?>
<!DOCTYPE svg PUBLIC "-//W3C//DTD SVG 20010904//EN"
 "http://www.w3.org/TR/2001/REC-SVG-20010904/DTD/svg10.dtd">
<svg version="1.0" xmlns="http://www.w3.org/2000/svg"
 width="1400.000000pt" height="1400.000000pt" viewBox="0 0 1400.000000 1400.000000"
 preserveAspectRatio="xMidYMid meet">

<g transform="translate(0.000000,1400.000000) scale(0.100000,-0.100000)"
fill="#000000" stroke="none">
<path d="M7585 10679 c-527 -72 -967 -391 -1191 -864 -99 -210 -144 -409 -144
-640 0 -337 95 -583 398 -1030 101 -148 581 -837 830 -1190 141 -201 178 -229
297 -229 80 0 130 21 181 76 17 18 98 130 179 248 249 361 331 474 550 765
223 296 279 376 370 525 129 214 202 395 231 580 24 154 15 435 -19 580 -68
289 -200 524 -416 741 -218 218 -470 354 -778 419 -114 24 -377 35 -488 19z
m292 -510 c174 -19 319 -71 457 -163 487 -326 602 -980 255 -1448 -103 -138
-275 -272 -428 -334 -141 -57 -203 -68 -391 -68 -161 0 -182 2 -265 28 -187
56 -333 144 -460 277 -175 183 -269 399 -282 645 -19 361 150 699 451 899 134
89 288 146 446 164 107 12 111 12 217 0z"/>
<path d="M3322 8176 c-409 -78 -748 -370 -877 -756 -40 -119 -56 -224 -56
-360 0 -231 71 -426 254 -700 80 -120 697 -1001 730 -1044 57 -72 152 -95 232
-56 45 22 45 22 286 370 63 91 190 266 283 390 201 266 308 427 376 564 230
463 82 1057 -342 1377 -105 78 -277 162 -403 195 -83 22 -127 27 -255 30 -104
2 -179 -1 -228 -10z m356 -382 c47 -9 118 -35 181 -65 90 -44 115 -62 195
-142 76 -77 99 -108 139 -187 55 -111 75 -183 84 -297 23 -318 -173 -627 -477
-750 -204 -82 -450 -67 -640 39 -406 227 -516 756 -233 1125 108 142 261 238
443 279 78 17 218 17 308 -2z"/>
<path d="M5698 6988 c176 -238 793 -1069 798 -1076 1 -2 34 22 74 52 40 31 77
56 82 56 7 0 8 -30 5 -87 -4 -49 -9 -218 -12 -378 -3 -159 -8 -309 -11 -332
l-5 -43 1430 0 c787 0 1431 2 1431 5 0 3 -17 29 -39 58 -21 29 -156 221 -301
427 -145 206 -272 385 -283 398 l-20 22 -1056 0 -1056 0 -450 575 -449 575
-163 0 -163 0 188 -252z"/>
<path d="M10392 7041 c-206 -52 -377 -199 -459 -396 -33 -78 -46 -164 -41
-272 5 -117 33 -205 100 -315 74 -122 475 -689 498 -705 34 -24 96 -20 125 7
14 13 68 86 122 164 53 78 139 196 191 264 230 303 282 415 282 607 0 122 -17
193 -71 302 -77 154 -219 276 -383 329 -109 36 -259 42 -364 15z m287 -220
c209 -65 344 -278 310 -491 -38 -238 -273 -412 -504 -373 -195 34 -342 179
-377 373 -13 78 2 179 38 256 31 66 112 156 171 191 107 63 247 80 362 44z"/>
<path d="M5349 6147 c-68 -29 -103 -55 -146 -108 -51 -64 -68 -121 -68 -224 0
-78 4 -97 28 -147 107 -219 406 -265 571 -88 72 77 91 126 91 240 0 82 -4 103
-26 151 -34 73 -96 134 -168 167 -81 38 -203 42 -282 9z m246 -81 c73 -34 145
-121 145 -174 0 -22 -1 -23 -107 -20 l-108 3 -3 108 c-3 121 -4 120 73 83z
m-175 -91 l0 -105 -101 0 -101 0 6 33 c9 47 55 107 110 145 81 54 86 50 86
-73z m0 -310 c0 -77 -3 -105 -12 -105 -26 0 -117 61 -142 93 -14 18 -32 52
-40 75 l-15 42 104 0 105 0 0 -105z m316 75 c-14 -75 -128 -180 -193 -180 -22
0 -23 3 -23 105 l0 105 111 0 112 0 -7 -30z"/>
<path d="M6940 4773 c0 -32 7 -206 15 -388 8 -181 15 -345 15 -362 l0 -33 800
0 c440 0 800 1 800 3 2 19 40 790 40 810 l0 27 -835 0 -835 0 0 -57z m782 -10
c2 -5 2 -74 0 -155 l-3 -148 -333 0 -333 0 -6 107 c-4 58 -7 128 -7 155 l0 48
339 0 c187 0 341 -3 343 -7z m785 -75 c-4 -46 -7 -116 -7 -155 l0 -73 -340 0
-340 0 0 148 c0 82 3 152 7 155 3 4 159 7 346 7 l340 0 -6 -82z m-779 -383 c2
-27 1 -96 -3 -152 l-7 -103 -323 0 -323 0 -6 43 c-4 33 -9 224 -7 260 1 4 151
6 334 5 l332 -3 3 -50z m759 -27 c-4 -46 -7 -116 -7 -155 l0 -73 -330 0 -330
0 0 148 c0 82 3 152 7 155 3 4 155 7 336 7 l330 0 -6 -82z"/>
<path d="M5137 4703 c-2 -5 0 -64 4 -133 5 -69 24 -384 43 -700 20 -316 38
-599 41 -627 l5 -53 -288 0 c-244 0 -291 -2 -310 -16 -31 -21 -28 -52 6 -66
20 -9 247 -12 847 -12 l819 -1 1 47 0 48 -257 0 c-217 0 -258 2 -258 14 0 27
100 1391 106 1449 l6 57 -380 0 c-210 0 -383 -3 -385 -7z m645 -720 c24 -21
23 -58 -2 -83 -24 -24 -48 -25 -78 -4 -26 18 -30 65 -6 88 20 21 63 20 86 -1z"/>
<path d="M7010 3311 c5 -11 10 -30 10 -43 l0 -23 285 0 285 0 0 27 c0 14 3 33
6 42 6 14 -25 16 -295 16 -295 0 -301 0 -291 -19z"/>
</g>
</svg>
